# xmcd CD database file
#
# Track frame offsets:
#	150
#	11077
#	21229
#	30755
#	48197
#	57196
#	66785
#	76494
#	87531
#	97169
#	106594
#	117401
#	128141
#	138807
#	148238
#	158955
#	170287
#	178655
#	187752
#	198870
#
# Disc length: 2813 seconds
#
# Revision: 0
# Processed by: cddbd v1.5.2PL0 Copyright (c) Steve Scherf et al.
# Submitted via: Feurio! 1.68 - http://www.feurio.com
#
DISCID=050afb14
DTITLE=Eddie Wilson - Dankeschön, Bitteschön, Wiedersehn
DYEAR=1900
DGENRE=Country
TTITLE0=Ich bin ja nur ein Tramp
TTITLE1=Sie hat das gewisse Etwas
TTITLE2=Rheinländer Waltz
TTITLE3=Noch drei lange Stunden
TTITLE4=Beim letzten Sonnenstrahl
TTITLE5=Ich bin froh, dass ich Dich los bin
TTITLE6=Dankeschön, Bitteschön, Wiedersehn
TTITLE7=Fraulein
TTITLE8=Die Story vom tapferen Cowboy
TTITLE9=Wahre Liebe fand ich erst am Neckarstrand
TTITLE10=Schenk ihr Gold und Geld
TTITLE11=Es dauert lange, bis man so etwas vergisst
TTITLE12=Willie Nelson - * Whisky Walzer
TTITLE13=Johnny Cash - * Heute tut mir alles leid
TTITLE14=Johnny Cash - * Besser So, Jenny -Jo
TTITLE15=Johnny Cash - * Wer kennt den Weg
TTITLE16=Johnny Cash - * Kleine Rosmarie
TTITLE17=Johnny Cash - * In Virginia
TTITLE18=Roy Orbison - * San Fernando
TTITLE19=Roy Orbison - * Mama
EXTD=
EXTT0=
EXTT1=
EXTT2=
EXTT3=
EXTT4=
EXTT5=
EXTT6=
EXTT7=
EXTT8=
EXTT9=
EXTT10=
EXTT11=
EXTT12=
EXTT13=
EXTT14=
EXTT15=
EXTT16=
EXTT17=
EXTT18=
EXTT19=
PLAYORDER=
